<?xml version="1.0" encoding="UTF-8"?>
<svg width="512" height="512" viewBox="0 0 512 512" fill="none" xmlns="http://www.w3.org/2000/svg">
    <rect width="512" height="512" rx="128" fill="url(#gradient)"/>
    <path d="M256 128C325.647 128 384 186.353 384 256C384 325.647 325.647 384 256 384C186.353 384 128 325.647 128 256C128 186.353 186.353 128 256 128ZM256 176C212.921 176 176 212.921 176 256C176 299.079 212.921 336 256 336C299.079 336 336 299.079 336 256C336 212.921 299.079 176 256 176Z" fill="white"/>
    <defs>
        <linearGradient id="gradient" x1="0" y1="0" x2="512" y2="512" gradientUnits="userSpaceOnUse">
            <stop offset="0%" stop-color="#0052CC"/>
            <stop offset="100%" stop-color="#36B37E"/>
        </linearGradient>
    </defs>
</svg> 