<?xml version="1.0" standalone="no"?>
<!DOCTYPE svg PUBLIC "-//W3C//DTD SVG 20010904//EN" "http://www.w3.org/TR/2001/REC-SVG-20010904/DTD/svg10.dtd">
<svg version="1.0" xmlns="http://www.w3.org/2000/svg" width="512pt" height="512pt" viewBox="0 0 512 512" preserveAspectRatio="xMidYMid meet">
    <g transform="translate(0.000000,512.000000) scale(0.100000,-0.100000)" fill="#000000" stroke="none">
        <path d="M1280 5104 c-261 -45 -493 -165 -683 -355 -190 -190 -310 -422 -355
        -683 -20 -116 -20 -3896 0 -4012 45 -261 165 -493 355 -683 190 -190 422
        -310 683 -355 116 -20 3896 -20 4012 0 261 45 493 165 683 355 190 190 310
        422 355 683 20 116 20 3896 0 4012 -45 261 -165 493 -355 683 -190 190 -422
        310 -683 355 -114 20 -3898 20 -4012 0z m2280 -1544 c550 -550 1000 -1005
        1000 -1012 0 -7 -450 -462 -1000 -1012 l-1000 -1000 -1000 1000 c-550 550
        -1000 1005 -1000 1012 0 7 450 462 1000 1012 l1000 1000 1000 -1000z"/>
        <path d="M2560 3072 c-151 -50 -280 -179 -330 -330 -65 -197 2 -408 170 -533
        73 -54 132 -79 223 -94 218 -35 442 89 527 292 89 211 13 453 -183 583 -89
        59 -138 75 -247 80 -77 3 -106 0 -160 -18z"/>
    </g>
</svg> 